<svg width="26" height="26" viewBox="0 0 26 26" fill="none" xmlns="http://www.w3.org/2000/svg">
<path d="M24.0807 0H1.91931C1.41027 0 0.922092 0.202212 0.562152 0.562152C0.202212 0.922092 0 1.41027 0 1.91931V24.0807C0 24.5897 0.202212 25.0779 0.562152 25.4379C0.922092 25.7978 1.41027 26 1.91931 26H24.0807C24.5897 26 25.0779 25.7978 25.4379 25.4379C25.7978 25.0779 26 24.5897 26 24.0807V1.91931C26 1.41027 25.7978 0.922092 25.4379 0.562152C25.0779 0.202212 24.5897 0 24.0807 0ZM7.74944 22.1488H3.84042V9.73195H7.74944V22.1488ZM5.79222 8.01125C5.34881 8.00875 4.91608 7.87496 4.54863 7.62676C4.18118 7.37856 3.89549 7.02708 3.72762 6.61666C3.55974 6.20625 3.5172 5.75531 3.60537 5.32074C3.69353 4.88618 3.90845 4.48747 4.223 4.17493C4.53755 3.86239 4.93763 3.65004 5.37276 3.56467C5.80788 3.47929 6.25854 3.52473 6.66786 3.69523C7.07719 3.86574 7.42683 4.15368 7.67267 4.52271C7.91851 4.89175 8.04952 5.32533 8.04917 5.76875C8.05335 6.06562 7.99772 6.36029 7.8856 6.63521C7.77347 6.91012 7.60715 7.15964 7.39654 7.36891C7.18592 7.57817 6.93534 7.74289 6.65971 7.85325C6.38408 7.9636 6.08906 8.01734 5.79222 8.01125ZM22.1578 22.1596H18.2506V15.3761C18.2506 13.3756 17.4001 12.7581 16.3024 12.7581C15.1432 12.7581 14.0057 13.6319 14.0057 15.4267V22.1596H10.0967V9.74097H13.8558V11.4617H13.9064C14.2838 10.6979 15.6054 9.3925 17.6222 9.3925C19.8033 9.3925 22.1596 10.6871 22.1596 14.4788L22.1578 22.1596Z" fill="white"/>
</svg>
