<svg width="26" height="22" viewBox="0 0 26 22" fill="none" xmlns="http://www.w3.org/2000/svg">
<path d="M8.17648 21.5629C17.9878 21.5629 23.3542 13.4343 23.3542 6.38512C23.3542 6.15424 23.3542 5.9244 23.3386 5.6956C24.3826 4.94047 25.2838 4.00548 26 2.9344C25.0265 3.366 23.9937 3.64892 22.9362 3.77368C24.0498 3.10709 24.8833 2.05853 25.2814 0.823196C24.2343 1.44461 23.0887 1.88251 21.8941 2.118C21.0898 1.26279 20.0261 0.696491 18.8675 0.506737C17.709 0.316984 16.5202 0.514353 15.4851 1.06831C14.4501 1.62226 13.6264 2.5019 13.1416 3.57113C12.6569 4.64035 12.538 5.83954 12.8034 6.98312C10.6826 6.87673 8.6079 6.32557 6.71391 5.36541C4.81992 4.40524 3.14899 3.05753 1.8096 1.40976C1.12746 2.58409 0.918528 3.97426 1.22536 5.29722C1.53219 6.62018 2.3317 7.77646 3.46112 8.53064C2.61217 8.50577 1.7817 8.27674 1.04 7.86296V7.93056C1.04034 9.16215 1.46667 10.3557 2.24669 11.3088C3.02672 12.2619 4.1124 12.9159 5.3196 13.1597C4.53427 13.3739 3.71028 13.4052 2.91096 13.2512C3.25197 14.3111 3.91563 15.2379 4.80918 15.9021C5.70272 16.5663 6.78148 16.9347 7.89464 16.9557C6.78864 17.8251 5.52209 18.4678 4.16745 18.8472C2.8128 19.2266 1.39665 19.3352 0 19.1668C2.43949 20.7322 5.27792 21.5626 8.17648 21.5588" fill="#FAFAFA"/>
</svg>
