<svg width="75" height="22" viewBox="0 0 75 22" fill="none" xmlns="http://www.w3.org/2000/svg">
<path d="M49.3908 0.190262H46.7675V21.4635H49.3908V0.190262Z" fill="#214E41"/>
<path d="M56.078 0.190262H53.4547V21.4635H56.078V0.190262Z" fill="#214E41"/>
<path d="M73.7314 7.11542L72.4197 9.97205C71.2156 7.91614 69.1084 6.74752 66.6356 6.74752C62.2061 6.74752 59.1958 10.1235 59.1958 14.2786C59.1958 18.4337 62.2061 21.8097 66.6356 21.8097C68.9794 21.8097 71.0006 20.7493 72.2262 18.8882V21.4635H75V7.11542H73.7314ZM67.0442 20.2732C63.9263 20.2732 62.2061 17.7196 62.2061 14.2786C62.2061 10.7511 63.9263 8.28404 67.0442 8.28404C69.904 8.28404 72.0327 10.7944 72.0327 14.2786C72.0327 17.7629 69.904 20.2732 67.0442 20.2732Z" fill="#214E41"/>
<path d="M23.115 8.2624C22.2764 9.06312 21.6313 10.0586 21.2658 11.1623L19.9111 7.09378H18.6425V21.4418H21.4163V15.9883C21.4163 14.0189 21.6313 12.3742 22.4269 11.2056C23.115 10.2101 24.2976 9.60415 25.7813 9.60415C26.2543 9.60415 26.7274 9.64743 27.2004 9.734V6.98557C26.9209 6.94229 26.6413 6.92065 26.3618 6.92065C25.1577 6.94229 23.9966 7.4184 23.115 8.2624Z" fill="#214E41"/>
<path d="M35.7368 6.74752C31.2858 6.74752 28.125 9.99369 28.125 14.2786C28.125 18.5636 31.2213 21.8097 35.7153 21.8097C37.3925 21.8314 39.0482 21.3336 40.4458 20.3814C41.6069 19.4941 42.4455 18.239 42.8326 16.8106H39.9728C39.5427 18.6285 38.4246 20.2949 35.9088 20.2949C32.361 20.2949 31.2213 17.5032 31.1568 14.5167V14.4734H43.1551C43.1551 14.3219 43.1551 14.2137 43.1551 14.1271C43.1766 9.8422 40.1448 6.74752 35.7368 6.74752ZM35.7583 8.2624C38.8976 8.2624 39.8867 10.8377 39.9728 12.9152H31.2428C31.5009 10.3832 32.791 8.2624 35.7583 8.2624Z" fill="#214E41"/>
<path d="M9.46101 11.0108C12.2778 10.4265 14.4495 8.91163 14.4495 6.27141C14.4495 3.02525 12.0198 1.46709 8.27838 1.46709H0V21.4851H9.15998C12.5358 21.4851 15.2021 19.7538 15.2021 16.0965C15.2021 13.0667 12.6649 11.2272 9.46101 11.0108ZM7.33228 2.91704C10.0201 2.91704 11.4177 4.28043 11.4177 6.4229C11.4177 8.56537 9.89106 10.2317 7.09576 10.2317H3.09633V2.91704H7.33228ZM7.69782 19.9919H3.09633V11.8981H7.22477C10.1706 11.8981 11.9983 13.3481 11.9983 15.9666C11.9983 18.2606 10.4716 19.9919 7.69782 19.9919Z" fill="#214E41"/>
</svg>
